<svg width="520" height="519" viewBox="0 0 520 519" fill="none" xmlns="http://www.w3.org/2000/svg">
<path d="M259.112 10C123.776 10 13.6069 118.903 10.1245 254.239C9.1748 288.43 13.6069 321.037 25.1619 350.954C25.1619 350.954 -13.1439 165.123 128.683 67.9336C165.089 43.7155 217.008 31.6855 264.178 32.6353C383.686 35.1679 488.314 142.962 489.106 262.47C489.897 385.619 382.261 488.981 259.271 488.981C136.281 488.981 182.976 480.117 154.642 461.122C113.012 433.264 112.379 388.943 125.833 352.22C163.506 249.491 224.764 99.9079 259.271 96.7421C275.258 95.3175 319.262 160.691 384.952 375.488C385.11 375.963 385.268 376.438 385.268 376.913C392.233 387.043 398.881 398.124 398.881 398.124C393.183 390.526 383.844 382.611 374.663 375.805C277.474 306.158 164.456 284.947 164.456 284.947L159.866 295.078C159.866 295.078 259.271 313.914 382.894 401.448C392.866 408.571 402.838 408.096 404.896 397.965C409.803 374.855 311.506 76.6395 259.112 76.6395C206.719 76.6395 146.886 246.483 108.105 352.22C87.3693 408.729 106.047 464.13 161.29 488.031C191.84 501.169 225.397 508.609 260.854 508.609C398.723 508.609 509.842 402.397 510 264.528C510.158 125.709 397.773 10 258.954 10H259.112Z" fill="url(#paint0_linear_1_15)"/>
<path d="M121.688 288.407L126.699 275.601C126.699 275.601 78.8225 270.59 36.6988 280.426C36.6988 280.426 88.6576 277.828 121.688 288.592V288.407Z" fill="url(#paint1_linear_1_15)"/>
<path d="M259.242 265.868C273.049 265.868 284.242 254.674 284.242 240.865C284.242 227.056 273.049 215.862 259.242 215.862C245.434 215.862 234.242 227.056 234.242 240.865C234.242 254.674 245.434 265.868 259.242 265.868Z" fill="url(#paint2_linear_1_15)"/>
<defs>
<linearGradient id="paint0_linear_1_15" x1="260" y1="10" x2="260" y2="508.609" gradientUnits="userSpaceOnUse">
<stop offset="0.326042" stop-color="#FF3D00"/>
<stop offset="0.9999" stop-color="#FFB700"/>
<stop offset="1" stop-color="#FFC93C"/>
</linearGradient>
<linearGradient id="paint1_linear_1_15" x1="81.6988" y1="274.325" x2="81.6988" y2="288.592" gradientUnits="userSpaceOnUse">
<stop offset="0.326042" stop-color="#FF3D00"/>
<stop offset="0.9999" stop-color="#FFB700"/>
<stop offset="1" stop-color="#FFC93C"/>
</linearGradient>
<linearGradient id="paint2_linear_1_15" x1="259.242" y1="215.862" x2="259.242" y2="265.868" gradientUnits="userSpaceOnUse">
<stop offset="0.326042" stop-color="#FF3D00"/>
<stop offset="0.9999" stop-color="#FFB700"/>
<stop offset="1" stop-color="#FFC93C"/>
</linearGradient>
</defs>
</svg>
