<svg width="401" height="400" viewBox="0 0 401 400" fill="none" xmlns="http://www.w3.org/2000/svg">
<path d="M199.67 20.6243C102.506 20.6243 23.41 98.8108 20.9098 195.976C20.228 220.523 23.41 243.933 31.7059 265.412C31.7059 265.412 4.20431 131.995 106.029 62.2177C132.166 44.8303 169.441 36.1935 203.307 36.8753C289.107 38.6936 364.226 116.085 364.794 201.885C365.362 290.299 288.085 364.508 199.784 364.508C111.483 364.508 145.008 358.144 124.666 344.507C94.7778 324.506 94.3233 292.686 103.983 266.321C131.03 192.566 175.01 85.1736 199.784 82.9008C211.262 81.878 242.855 128.813 290.017 283.026C290.13 283.367 290.244 283.708 290.244 284.049C295.244 291.322 300.017 299.277 300.017 299.277C295.926 293.822 289.221 288.14 282.63 283.254C212.853 233.251 131.712 218.022 131.712 218.022L128.416 225.296C128.416 225.296 199.784 238.819 288.539 301.664C295.699 306.778 302.858 306.437 304.336 299.164C307.859 282.572 237.286 68.4681 199.67 68.4681C162.055 68.4681 119.097 190.407 91.2549 266.321C76.3677 306.891 89.7776 346.666 129.439 363.826C151.372 373.259 175.464 378.6 200.92 378.6C299.904 378.6 379.681 302.346 379.795 203.362C379.908 103.697 299.222 20.6243 199.557 20.6243H199.67Z" fill="url(#paint0_linear_5_13)"/>
<path d="M98.8127 223.133L102.861 212.783C102.861 212.783 64.1783 208.734 30.1437 216.683C30.1437 216.683 72.1247 214.583 98.8127 223.283V223.133Z" fill="url(#paint1_linear_5_13)"/>
<path d="M199.695 204.917C210.851 204.917 219.894 195.869 219.894 184.709C219.894 173.549 210.851 164.501 199.695 164.501C188.539 164.501 179.496 173.549 179.496 184.709C179.496 195.869 188.539 204.917 199.695 204.917Z" fill="url(#paint2_linear_5_13)"/>
<defs>
<linearGradient id="paint0_linear_5_13" x1="200.308" y1="20.6243" x2="200.308" y2="378.6" gradientUnits="userSpaceOnUse">
<stop offset="0.326042" stop-color="#FF3D00"/>
<stop offset="0.9999" stop-color="#FFB700"/>
<stop offset="1" stop-color="#FFC93C"/>
</linearGradient>
<linearGradient id="paint1_linear_5_13" x1="66.5023" y1="211.752" x2="66.5023" y2="223.283" gradientUnits="userSpaceOnUse">
<stop offset="0.326042" stop-color="#FF3D00"/>
<stop offset="0.9999" stop-color="#FFB700"/>
<stop offset="1" stop-color="#FFC93C"/>
</linearGradient>
<linearGradient id="paint2_linear_5_13" x1="199.695" y1="164.501" x2="199.695" y2="204.917" gradientUnits="userSpaceOnUse">
<stop offset="0.326042" stop-color="#FF3D00"/>
<stop offset="0.9999" stop-color="#FFB700"/>
<stop offset="1" stop-color="#FFC93C"/>
</linearGradient>
</defs>
</svg>
